# xmcd
#
# Track frame offsets:
#	222
#	16967
#	40400
#	54187
#	79407
#	99240
#	115710
#	145957
#	174462
#	189377
#	207452
#	218747
#	232955
#
# Disc length: 3323 seconds
#
# Revision: 1
# Processed by: cddbd v1.4PL0 Copyright (c) Steve Scherf et al.
# Submitted via: audiograbber 1.81.03
#
DISCID=aa0cf90d
DTITLE=Paul Gibbard - Get Ready For The Blues
DYEAR=1998
DGENRE=Blues
TTITLE0=C'mon Babe
TTITLE1=Get Ready For The Blues
TTITLE2=Good Time Girl
TTITLE3=Wher Are You Tonight?
TTITLE4=One More Beer
TTITLE5=The Spider And The Fly
TTITLE6=The Only One
TTITLE7=Put The Shoe On The Other Foot
TTITLE8=Mean Mistreatin' Mama
TTITLE9=Jealousy
TTITLE10=Jeff's Boogie
TTITLE11=Too Bad
TTITLE12=Death Letter
EXTD=
EXTT0=
EXTT1=
EXTT2=
EXTT3=
EXTT4=
EXTT5=
EXTT6=
EXTT7=
EXTT8=
EXTT9=
EXTT10=
EXTT11=
EXTT12=
PLAYORDER=
